<svg width="21" height="16" viewBox="0 0 21 16" fill="none" xmlns="http://www.w3.org/2000/svg">
<rect y="3.8147e-06" width="21" height="16" rx="3" fill="#F0F0F0"/>
<path d="M10.508 13.3059C9.99543 13.3059 9.57992 12.8904 9.57992 12.3778V7.20111C9.57992 6.68854 9.99543 6.27303 10.508 6.27303V6.27303C11.0206 6.27303 11.4361 6.68854 11.4361 7.20111V12.3778C11.4361 12.8904 11.0206 13.3059 10.508 13.3059V13.3059ZM9.38623 3.7412C9.38623 3.42863 9.49921 3.17858 9.72518 2.99103C9.95115 2.79307 10.2255 2.69409 10.5483 2.69409C10.8281 2.69409 11.0756 2.79307 11.2908 2.99103C11.506 3.17858 11.6136 3.42863 11.6136 3.7412C11.6136 4.08503 11.506 4.36114 11.2908 4.56952C11.0756 4.76748 10.8281 4.86646 10.5483 4.86646C10.2148 4.86646 9.93501 4.76748 9.70904 4.56952C9.49383 4.36114 9.38623 4.08503 9.38623 3.7412Z" fill="#1A848E"/>
</svg>
