<svg width="17" height="16" viewBox="0 0 17 16" fill="none" xmlns="http://www.w3.org/2000/svg">
<path d="M1 7.07114C0.447715 7.07114 0 7.51885 0 8.07114C0 8.62342 0.447715 9.07114 1 9.07114V7.07114ZM16.7071 8.77824C17.0976 8.38772 17.0976 7.75455 16.7071 7.36403L10.3431 1.00007C9.95262 0.609544 9.31946 0.609544 8.92893 1.00007C8.53841 1.39059 8.53841 2.02376 8.92893 2.41428L14.5858 8.07114L8.92893 13.728C8.53841 14.1185 8.53841 14.7517 8.92893 15.1422C9.31946 15.5327 9.95262 15.5327 10.3431 15.1422L16.7071 8.77824ZM1 8.07114V9.07114H16V8.07114V7.07114H1V8.07114Z" fill="#DCDFE3"/>
</svg>
