<svg width="16" height="22" viewBox="0 0 16 22" fill="none" xmlns="http://www.w3.org/2000/svg">
<rect y="9.79755" width="16" height="12.2024" rx="3" fill="#F0F0F0"/>
<path d="M8.81338 14.7425C8.98109 14.5026 9.06495 14.2285 9.06495 13.92C9.06495 13.6116 8.95174 13.3503 8.72532 13.1361C8.49891 12.9219 8.21798 12.8148 7.88254 12.8148C7.53256 12.8148 7.21591 12.902 6.93261 13.0765C6.57192 13.2985 6.07337 13.3342 5.79638 13.0138V13.0138C5.60784 12.7957 5.5754 12.4741 5.77062 12.262C5.96767 12.0478 6.20622 11.8637 6.48629 11.7096C6.93074 11.4612 7.42551 11.3369 7.97059 11.3369C8.78403 11.3369 9.42555 11.5554 9.89516 11.9924C10.3732 12.4207 10.6122 12.9562 10.6122 13.5988C10.6122 13.9929 10.5493 14.3484 10.4235 14.6654C10.2977 14.9824 10.1425 15.2352 9.95805 15.4236C9.77356 15.6036 9.57649 15.7878 9.36685 15.9762C9.16558 16.1562 8.9769 16.3189 8.8008 16.4646C8.63308 16.6017 8.5031 16.7773 8.41085 16.9915V16.9915C8.2614 17.3246 8.00493 17.6758 7.63982 17.6794L7.57428 17.68C7.2526 17.6831 6.96393 17.4492 6.9786 17.1278C6.98729 16.9373 7.02026 16.7634 7.07749 16.606C7.1949 16.2975 7.36262 16.0491 7.58065 15.8606C7.79868 15.6721 8.01672 15.4965 8.23475 15.3337C8.46117 15.1709 8.65404 14.9738 8.81338 14.7425ZM6.73787 19.5103C6.73787 19.2704 6.83011 19.052 7.0146 18.8549C7.19909 18.6579 7.43809 18.5593 7.73159 18.5593C7.99994 18.5593 8.22217 18.6579 8.39827 18.8549C8.57438 19.052 8.66243 19.2704 8.66243 19.5103C8.66243 19.7845 8.57438 20.0244 8.39827 20.23C8.22217 20.4356 7.99994 20.5384 7.73159 20.5384C7.43809 20.5384 7.19909 20.4356 7.0146 20.23C6.83011 20.0244 6.73787 19.7845 6.73787 19.5103Z" fill="#1A848E"/>
<ellipse cx="8.01733" cy="5.09109" rx="5" ry="5.08774" fill="#6DE8CA"/>
</svg>
