<svg width="68" height="39" viewBox="0 0 68 39" fill="none" xmlns="http://www.w3.org/2000/svg">
<path d="M3.61375 29.9879V5.48793H17.7888V9.51293H7.91875V15.6029H16.7388V19.6279H7.91875V25.9629H18.1388V29.9879H3.61375ZM28.0506 29.9879H23.7456V5.48793C24.1656 5.48793 25.2739 5.47626 27.0706 5.45293C28.8906 5.42959 30.1039 5.41793 30.7106 5.41793C32.4373 5.41793 33.9306 5.63959 35.1906 6.08293C36.4739 6.50293 37.4656 7.09793 38.1656 7.86793C38.8656 8.61459 39.3789 9.44293 39.7056 10.3529C40.0323 11.2396 40.1956 12.2196 40.1956 13.2929C40.1956 15.5096 39.4023 17.3879 37.8156 18.9279C36.2289 20.4679 34.0356 21.2379 31.2356 21.2379C29.8123 21.2379 28.7506 21.2029 28.0506 21.1329V29.9879ZM31.1306 9.44293C30.6173 9.44293 29.5906 9.46626 28.0506 9.51293V17.0379C29.1706 17.1546 30.1856 17.2129 31.0956 17.2129C32.4489 17.2129 33.5456 16.8863 34.3856 16.2329C35.2256 15.5563 35.6456 14.5646 35.6456 13.2579C35.6456 10.7146 34.1406 9.44293 31.1306 9.44293Z" fill="white"/>
<path d="M46.9474 5.98458H43V9.7715H46.9474V5.98458Z" fill="#00EEBB"/>
<path d="M52.2101 11.0338H48.2627V14.8208H52.2101V11.0338Z" fill="#00EEBB"/>
<path d="M52.2101 21.1323H48.2627V24.9192H52.2101V21.1323Z" fill="#00EEBB"/>
<path d="M46.9474 26.1815H43V29.9685H46.9474V26.1815Z" fill="#00EEBB"/>
<path d="M67.9999 26.1815H64.0525V29.9685H67.9999V26.1815Z" fill="#00EEBB"/>
<path d="M62.7369 21.1323H58.7896V24.9192H62.7369V21.1323Z" fill="#00EEBB"/>
<path d="M57.4735 16.0831H53.5261V19.87H57.4735V16.0831Z" fill="#00EEBB"/>
<path d="M62.7369 11.0338H58.7896V14.8208H62.7369V11.0338Z" fill="#00EEBB"/>
<path d="M67.9999 5.98458H64.0525V9.7715H67.9999V5.98458Z" fill="#00EEBB"/>
</svg>
