<svg width="24" height="13" viewBox="0 0 24 13" fill="none" xmlns="http://www.w3.org/2000/svg">
<ellipse cx="6.76724" cy="6.50736" rx="6.76724" ry="6.5" fill="#1A848E"/>
<ellipse cx="11.8075" cy="6.50738" rx="6.76723" ry="6.5" fill="#6DE8CA"/>
<ellipse cx="17.2328" cy="6.50739" rx="6.76724" ry="6.5" fill="#F0F0F0"/>
<path d="M18.1799 8.27652C18.1799 8.09026 18.1177 7.92729 17.9931 7.78759C17.8755 7.64124 17.7199 7.51818 17.5261 7.4184C17.3324 7.31196 17.1179 7.21218 16.8827 7.11905C16.6544 7.01927 16.4226 6.90951 16.1874 6.78977C15.9522 6.66338 15.7377 6.52701 15.544 6.38067C15.3502 6.22767 15.1911 6.03143 15.0666 5.79195C14.949 5.54582 14.8902 5.26976 14.8902 4.96376C14.8902 4.51807 15.0458 4.12227 15.3572 3.77636C15.5913 3.51626 15.884 3.32386 16.2355 3.19916C16.4445 3.12499 16.6025 2.93862 16.6025 2.71681V2.71681C16.6025 2.45883 16.8116 2.24969 17.0696 2.24969H17.3506C17.5966 2.24969 17.796 2.44908 17.796 2.69504V2.69504C17.796 2.91519 17.958 3.09878 18.1711 3.15387C18.46 3.22855 18.7133 3.33522 18.9308 3.47389C19.1713 3.62719 19.1866 3.95327 19.016 4.18184V4.18184C18.8077 4.46101 18.4054 4.48479 18.0876 4.34215C17.8549 4.23769 17.6055 4.18546 17.3393 4.18546C16.9796 4.18546 16.7063 4.25531 16.5195 4.39501C16.3327 4.52805 16.2393 4.71431 16.2393 4.95378C16.2393 5.17996 16.3188 5.37619 16.478 5.5425C16.644 5.7088 16.8481 5.84184 17.0903 5.94163C17.3324 6.03476 17.5953 6.14784 17.879 6.28088C18.1696 6.41393 18.4359 6.55362 18.6781 6.69997C18.9202 6.83966 19.1209 7.04588 19.28 7.31862C19.446 7.5847 19.5291 7.90068 19.5291 8.26654C19.5291 8.7588 19.3699 9.17789 19.0517 9.5238C18.8228 9.76779 18.542 9.94986 18.2093 10.07C17.9752 10.1545 17.796 10.3623 17.796 10.6112V10.6112C17.796 10.8979 17.5635 11.1303 17.2768 11.1303H17.1094C16.8295 11.1303 16.6025 10.9033 16.6025 10.6233V10.6233C16.6025 10.3748 16.421 10.167 16.1817 10.1C15.936 10.0312 15.7061 9.93892 15.4921 9.82314C15.305 9.71979 15.1499 9.60102 15.0269 9.46683C14.8664 9.29166 14.9079 9.02835 15.0635 8.84881V8.84881C15.3077 8.56702 15.7506 8.58486 16.0696 8.77799C16.1401 8.82068 16.214 8.85975 16.2912 8.89517C16.6025 9.02821 16.9069 9.09473 17.2044 9.09473C17.5088 9.09473 17.7475 9.02489 17.9205 8.88519C18.0935 8.73885 18.1799 8.53596 18.1799 8.27652Z" fill="#1A848E"/>
</svg>
