<svg width="443" height="59" viewBox="0 0 443 59" fill="none" xmlns="http://www.w3.org/2000/svg">
<g filter="url(#filter0_d_1_204)">
<rect width="438.419" height="55" rx="10" fill="url(#paint0_radial_1_204)" shape-rendering="crispEdges"/>
<rect x="0.5" y="0.5" width="437.419" height="54" rx="9.5" stroke="url(#paint1_linear_1_204)" shape-rendering="crispEdges"/>
</g>
<mask id="mask0_1_204" style="mask-type:alpha" maskUnits="userSpaceOnUse" x="0" y="0" width="440" height="55">
<rect x="0.5" y="0.5" width="439" height="54" rx="9.5" fill="url(#paint2_radial_1_204)" stroke="url(#paint3_linear_1_204)"/>
</mask>
<g mask="url(#mask0_1_204)">
<g filter="url(#filter1_f_1_204)">
<path d="M9.96387 -0.032259C262.003 -3.4489 428.038 16.6735 440.08 29V4.96774C440.08 2.20631 437.841 -0.032259 435.08 -0.032259H9.96387Z" fill="url(#paint4_linear_1_204)" fill-opacity="0.7"/>
</g>
</g>
<path d="M193.16 29.704C193.16 29.144 193.008 28.656 192.704 28.24C192.4 27.824 192.008 27.488 191.528 27.232C191.048 26.96 190.512 26.704 189.92 26.464C189.344 26.224 188.76 25.968 188.168 25.696C187.592 25.408 187.064 25.088 186.584 24.736C186.104 24.384 185.712 23.92 185.408 23.344C185.104 22.768 184.952 22.104 184.952 21.352C184.952 20.104 185.408 19.064 186.32 18.232C187.232 17.384 188.464 16.96 190.016 16.96C190.976 16.96 191.864 17.12 192.68 17.44C193.512 17.76 194.168 18.184 194.648 18.712L193.544 20.248C192.632 19.336 191.496 18.88 190.136 18.88C189.208 18.88 188.472 19.104 187.928 19.552C187.384 20 187.112 20.6 187.112 21.352C187.112 21.912 187.264 22.4 187.568 22.816C187.872 23.232 188.264 23.568 188.744 23.824C189.224 24.08 189.752 24.328 190.328 24.568C190.92 24.792 191.504 25.04 192.08 25.312C192.672 25.584 193.208 25.896 193.688 26.248C194.168 26.584 194.56 27.048 194.864 27.64C195.168 28.232 195.32 28.912 195.32 29.68C195.32 31.04 194.792 32.144 193.736 32.992C192.696 33.824 191.4 34.24 189.848 34.24C188.76 34.24 187.704 34.016 186.68 33.568C185.656 33.104 184.944 32.488 184.544 31.72L185.72 30.328C186.2 30.952 186.824 31.44 187.592 31.792C188.36 32.144 189.12 32.32 189.872 32.32C190.8 32.32 191.576 32.088 192.2 31.624C192.84 31.16 193.16 30.52 193.16 29.704ZM198.772 34V23.2H200.692V34H198.772ZM198.532 19.144C198.532 18.808 198.652 18.536 198.892 18.328C199.132 18.104 199.428 17.992 199.78 17.992C200.1 17.992 200.372 18.104 200.596 18.328C200.836 18.536 200.956 18.808 200.956 19.144C200.956 19.528 200.836 19.832 200.596 20.056C200.372 20.28 200.1 20.392 199.78 20.392C199.428 20.392 199.132 20.28 198.892 20.056C198.652 19.832 198.532 19.528 198.532 19.144ZM203.178 35.56C203.178 34.712 203.482 34.008 204.09 33.448C204.714 32.888 205.562 32.496 206.634 32.272C206.458 32.048 206.37 31.752 206.37 31.384C206.37 31.016 206.466 30.712 206.658 30.472C205.89 30.168 205.29 29.704 204.858 29.08C204.442 28.44 204.234 27.72 204.234 26.92C204.234 25.8 204.634 24.864 205.434 24.112C206.25 23.344 207.322 22.96 208.65 22.96C209.69 22.96 210.602 23.224 211.386 23.752L214.554 22.984L214.602 24.544L212.562 25.048C212.898 25.592 213.066 26.216 213.066 26.92C213.066 28.024 212.658 28.952 211.842 29.704C211.026 30.44 209.962 30.808 208.65 30.808C208.33 30.808 208.09 30.8 207.93 30.784C207.85 30.944 207.81 31.144 207.81 31.384C207.81 31.672 207.882 31.912 208.026 32.104C208.09 32.104 208.194 32.104 208.338 32.104C208.482 32.088 208.594 32.08 208.674 32.08C210.322 32.08 211.65 32.376 212.658 32.968C213.666 33.56 214.17 34.424 214.17 35.56C214.17 36.68 213.666 37.528 212.658 38.104C211.65 38.696 210.322 38.992 208.674 38.992C207.026 38.992 205.698 38.704 204.69 38.128C203.682 37.552 203.178 36.696 203.178 35.56ZM205.962 34.144C205.306 34.496 204.978 34.968 204.978 35.56C204.978 36.152 205.306 36.608 205.962 36.928C206.634 37.264 207.538 37.432 208.674 37.432C209.81 37.432 210.706 37.272 211.362 36.952C212.034 36.632 212.37 36.168 212.37 35.56C212.37 34.968 212.042 34.496 211.386 34.144C210.73 33.808 209.826 33.64 208.674 33.64C207.522 33.64 206.618 33.808 205.962 34.144ZM206.034 26.92C206.034 27.592 206.274 28.152 206.754 28.6C207.234 29.032 207.866 29.248 208.65 29.248C209.418 29.248 210.042 29.032 210.522 28.6C211.018 28.168 211.266 27.608 211.266 26.92C211.266 26.232 211.026 25.664 210.546 25.216C210.066 24.752 209.434 24.52 208.65 24.52C207.866 24.52 207.234 24.752 206.754 25.216C206.274 25.664 206.034 26.232 206.034 26.92ZM216.525 34V23.2H218.445V24.52C218.845 24.088 219.365 23.728 220.005 23.44C220.645 23.152 221.301 23.008 221.973 23.008C224.965 23.008 226.461 24.592 226.461 27.76V34H224.541V28.12C224.541 25.912 223.525 24.808 221.493 24.808C220.277 24.808 219.261 25.272 218.445 26.2V34H216.525ZM244.567 23.2V34H242.647V32.464C242.231 32.96 241.687 33.384 241.015 33.736C240.359 34.072 239.631 34.24 238.831 34.24C237.583 34.24 236.607 33.856 235.903 33.088C235.199 32.32 234.847 31.168 234.847 29.632V23.2H236.767V29.2C236.767 31.36 237.695 32.44 239.551 32.44C240.143 32.44 240.719 32.288 241.279 31.984C241.839 31.68 242.295 31.296 242.647 30.832V23.2H244.567ZM248.048 38.8V23.2H249.968V24.472C250.352 24.024 250.872 23.664 251.528 23.392C252.2 23.104 252.904 22.96 253.64 22.96C255.16 22.96 256.368 23.472 257.264 24.496C258.176 25.504 258.632 26.816 258.632 28.432C258.632 30.096 258.112 31.48 257.072 32.584C256.032 33.688 254.68 34.24 253.016 34.24C251.736 34.24 250.72 33.992 249.968 33.496V38.8H248.048ZM253.088 24.76C251.808 24.76 250.768 25.256 249.968 26.248V31.6C250.8 32.16 251.76 32.44 252.848 32.44C253.984 32.44 254.888 32.072 255.56 31.336C256.248 30.6 256.592 29.656 256.592 28.504C256.592 27.384 256.28 26.48 255.656 25.792C255.032 25.104 254.176 24.76 253.088 24.76Z" fill="#F0F0F0"/>
<defs>
<filter id="filter0_d_1_204" x="0" y="0" width="442.419" height="59" filterUnits="userSpaceOnUse" color-interpolation-filters="sRGB">
<feFlood flood-opacity="0" result="BackgroundImageFix"/>
<feColorMatrix in="SourceAlpha" type="matrix" values="0 0 0 0 0 0 0 0 0 0 0 0 0 0 0 0 0 0 127 0" result="hardAlpha"/>
<feOffset dx="2" dy="2"/>
<feGaussianBlur stdDeviation="1"/>
<feComposite in2="hardAlpha" operator="out"/>
<feColorMatrix type="matrix" values="0 0 0 0 0 0 0 0 0 0 0 0 0 0 0 0 0 0 0.3 0"/>
<feBlend mode="normal" in2="BackgroundImageFix" result="effect1_dropShadow_1_204"/>
<feBlend mode="normal" in="SourceGraphic" in2="effect1_dropShadow_1_204" result="shape"/>
</filter>
<filter id="filter1_f_1_204" x="8.96387" y="-1.41711" width="432.116" height="31.4171" filterUnits="userSpaceOnUse" color-interpolation-filters="sRGB">
<feFlood flood-opacity="0" result="BackgroundImageFix"/>
<feBlend mode="normal" in="SourceGraphic" in2="BackgroundImageFix" result="shape"/>
<feGaussianBlur stdDeviation="0.5" result="effect1_foregroundBlur_1_204"/>
</filter>
<radialGradient id="paint0_radial_1_204" cx="0" cy="0" r="1" gradientUnits="userSpaceOnUse" gradientTransform="translate(21.2138 5.32258) rotate(6.89141) scale(292.032 69.6227)">
<stop stop-color="#76A79B"/>
<stop offset="0.652783" stop-color="#0F5157" stop-opacity="0.8"/>
<stop offset="0.887675" stop-color="#052D30" stop-opacity="0.8"/>
</radialGradient>
<linearGradient id="paint1_linear_1_204" x1="321.743" y1="42.1371" x2="313.589" y2="-40.0009" gradientUnits="userSpaceOnUse">
<stop stop-color="#313131"/>
<stop offset="1" stop-color="white"/>
</linearGradient>
<radialGradient id="paint2_radial_1_204" cx="0" cy="0" r="1" gradientUnits="userSpaceOnUse" gradientTransform="translate(21.2903 5.32258) rotate(6.86688) scale(293.07 69.6263)">
<stop stop-color="#76A79B"/>
<stop offset="0.652783" stop-color="#0F5157" stop-opacity="0.8"/>
<stop offset="0.887675" stop-color="#052D30" stop-opacity="0.8"/>
</radialGradient>
<linearGradient id="paint3_linear_1_204" x1="322.903" y1="42.1371" x2="314.778" y2="-40.0066" gradientUnits="userSpaceOnUse">
<stop stop-color="#313131"/>
<stop offset="1" stop-color="white"/>
</linearGradient>
<linearGradient id="paint4_linear_1_204" x1="242.365" y1="-3.41936" x2="241.674" y2="28.7619" gradientUnits="userSpaceOnUse">
<stop stop-color="#6DE8CA" stop-opacity="0.27"/>
<stop offset="1" stop-color="#BABABA" stop-opacity="0.06"/>
</linearGradient>
</defs>
</svg>
