<svg width="444" height="59" viewBox="0 0 444 59" fill="none" xmlns="http://www.w3.org/2000/svg">
<g filter="url(#filter0_d_1_251)">
<rect x="0.5" width="438.917" height="55" rx="10" fill="url(#paint0_radial_1_251)" shape-rendering="crispEdges"/>
<rect x="1" y="0.5" width="437.917" height="54" rx="9.5" stroke="url(#paint1_linear_1_251)" shape-rendering="crispEdges"/>
</g>
<mask id="mask0_1_251" style="mask-type:alpha" maskUnits="userSpaceOnUse" x="0" y="0" width="441" height="55">
<rect x="1" y="0.500031" width="439" height="54" rx="9.5" fill="url(#paint2_radial_1_251)" stroke="url(#paint3_linear_1_251)"/>
</mask>
<g mask="url(#mask0_1_251)">
<g filter="url(#filter1_f_1_251)">
<path d="M11.4639 -0.032259C263.503 -3.4489 429.538 16.6735 441.58 29V4.96774C441.58 2.20631 439.341 -0.032259 436.58 -0.032259H11.4639Z" fill="url(#paint4_linear_1_251)" fill-opacity="0.7"/>
</g>
</g>
<path d="M196.763 29.704C196.763 29.144 196.611 28.656 196.307 28.24C196.003 27.824 195.611 27.488 195.131 27.232C194.651 26.96 194.115 26.704 193.523 26.464C192.947 26.224 192.363 25.968 191.771 25.696C191.195 25.408 190.667 25.088 190.187 24.736C189.707 24.384 189.315 23.92 189.011 23.344C188.707 22.768 188.555 22.104 188.555 21.352C188.555 20.104 189.011 19.064 189.923 18.232C190.835 17.384 192.067 16.96 193.619 16.96C194.579 16.96 195.467 17.12 196.283 17.44C197.115 17.76 197.771 18.184 198.251 18.712L197.147 20.248C196.235 19.336 195.099 18.88 193.739 18.88C192.811 18.88 192.075 19.104 191.531 19.552C190.987 20 190.715 20.6 190.715 21.352C190.715 21.912 190.867 22.4 191.171 22.816C191.475 23.232 191.867 23.568 192.347 23.824C192.827 24.08 193.355 24.328 193.931 24.568C194.523 24.792 195.107 25.04 195.683 25.312C196.275 25.584 196.811 25.896 197.291 26.248C197.771 26.584 198.163 27.048 198.467 27.64C198.771 28.232 198.923 28.912 198.923 29.68C198.923 31.04 198.395 32.144 197.339 32.992C196.299 33.824 195.003 34.24 193.451 34.24C192.363 34.24 191.307 34.016 190.283 33.568C189.259 33.104 188.547 32.488 188.147 31.72L189.323 30.328C189.803 30.952 190.427 31.44 191.195 31.792C191.963 32.144 192.723 32.32 193.475 32.32C194.403 32.32 195.179 32.088 195.803 31.624C196.443 31.16 196.763 30.52 196.763 29.704ZM202.374 34V23.2H204.294V34H202.374ZM202.134 19.144C202.134 18.808 202.254 18.536 202.494 18.328C202.734 18.104 203.03 17.992 203.382 17.992C203.702 17.992 203.974 18.104 204.198 18.328C204.438 18.536 204.558 18.808 204.558 19.144C204.558 19.528 204.438 19.832 204.198 20.056C203.974 20.28 203.702 20.392 203.382 20.392C203.03 20.392 202.734 20.28 202.494 20.056C202.254 19.832 202.134 19.528 202.134 19.144ZM206.78 35.56C206.78 34.712 207.084 34.008 207.692 33.448C208.316 32.888 209.164 32.496 210.236 32.272C210.06 32.048 209.972 31.752 209.972 31.384C209.972 31.016 210.068 30.712 210.26 30.472C209.492 30.168 208.892 29.704 208.46 29.08C208.044 28.44 207.836 27.72 207.836 26.92C207.836 25.8 208.236 24.864 209.036 24.112C209.852 23.344 210.924 22.96 212.252 22.96C213.292 22.96 214.204 23.224 214.988 23.752L218.156 22.984L218.204 24.544L216.164 25.048C216.5 25.592 216.668 26.216 216.668 26.92C216.668 28.024 216.26 28.952 215.444 29.704C214.628 30.44 213.564 30.808 212.252 30.808C211.932 30.808 211.692 30.8 211.532 30.784C211.452 30.944 211.412 31.144 211.412 31.384C211.412 31.672 211.484 31.912 211.628 32.104C211.692 32.104 211.796 32.104 211.94 32.104C212.084 32.088 212.196 32.08 212.276 32.08C213.924 32.08 215.252 32.376 216.26 32.968C217.268 33.56 217.772 34.424 217.772 35.56C217.772 36.68 217.268 37.528 216.26 38.104C215.252 38.696 213.924 38.992 212.276 38.992C210.628 38.992 209.3 38.704 208.292 38.128C207.284 37.552 206.78 36.696 206.78 35.56ZM209.564 34.144C208.908 34.496 208.58 34.968 208.58 35.56C208.58 36.152 208.908 36.608 209.564 36.928C210.236 37.264 211.14 37.432 212.276 37.432C213.412 37.432 214.308 37.272 214.964 36.952C215.636 36.632 215.972 36.168 215.972 35.56C215.972 34.968 215.644 34.496 214.988 34.144C214.332 33.808 213.428 33.64 212.276 33.64C211.124 33.64 210.22 33.808 209.564 34.144ZM209.636 26.92C209.636 27.592 209.876 28.152 210.356 28.6C210.836 29.032 211.468 29.248 212.252 29.248C213.02 29.248 213.644 29.032 214.124 28.6C214.62 28.168 214.868 27.608 214.868 26.92C214.868 26.232 214.628 25.664 214.148 25.216C213.668 24.752 213.036 24.52 212.252 24.52C211.468 24.52 210.836 24.752 210.356 25.216C209.876 25.664 209.636 26.232 209.636 26.92ZM220.128 34V23.2H222.048V24.52C222.448 24.088 222.968 23.728 223.608 23.44C224.248 23.152 224.904 23.008 225.576 23.008C228.568 23.008 230.064 24.592 230.064 27.76V34H228.144V28.12C228.144 25.912 227.128 24.808 225.096 24.808C223.88 24.808 222.864 25.272 222.048 26.2V34H220.128ZM239.218 34V23.2H241.138V34H239.218ZM238.978 19.144C238.978 18.808 239.098 18.536 239.338 18.328C239.578 18.104 239.874 17.992 240.226 17.992C240.546 17.992 240.818 18.104 241.042 18.328C241.282 18.536 241.402 18.808 241.402 19.144C241.402 19.528 241.282 19.832 241.042 20.056C240.818 20.28 240.546 20.392 240.226 20.392C239.874 20.392 239.578 20.28 239.338 20.056C239.098 19.832 238.978 19.528 238.978 19.144ZM245.112 34V23.2H247.032V24.52C247.432 24.088 247.952 23.728 248.592 23.44C249.232 23.152 249.888 23.008 250.56 23.008C253.552 23.008 255.048 24.592 255.048 27.76V34H253.128V28.12C253.128 25.912 252.112 24.808 250.08 24.808C248.864 24.808 247.848 25.272 247.032 26.2V34H245.112Z" fill="#F0F0F0"/>
<defs>
<filter id="filter0_d_1_251" x="0.5" y="0" width="442.917" height="59" filterUnits="userSpaceOnUse" color-interpolation-filters="sRGB">
<feFlood flood-opacity="0" result="BackgroundImageFix"/>
<feColorMatrix in="SourceAlpha" type="matrix" values="0 0 0 0 0 0 0 0 0 0 0 0 0 0 0 0 0 0 127 0" result="hardAlpha"/>
<feOffset dx="2" dy="2"/>
<feGaussianBlur stdDeviation="1"/>
<feComposite in2="hardAlpha" operator="out"/>
<feColorMatrix type="matrix" values="0 0 0 0 0 0 0 0 0 0 0 0 0 0 0 0 0 0 0.3 0"/>
<feBlend mode="normal" in2="BackgroundImageFix" result="effect1_dropShadow_1_251"/>
<feBlend mode="normal" in="SourceGraphic" in2="effect1_dropShadow_1_251" result="shape"/>
</filter>
<filter id="filter1_f_1_251" x="10.4639" y="-1.41714" width="432.116" height="31.4171" filterUnits="userSpaceOnUse" color-interpolation-filters="sRGB">
<feFlood flood-opacity="0" result="BackgroundImageFix"/>
<feBlend mode="normal" in="SourceGraphic" in2="BackgroundImageFix" result="shape"/>
<feGaussianBlur stdDeviation="0.5" result="effect1_foregroundBlur_1_251"/>
</filter>
<radialGradient id="paint0_radial_1_251" cx="0" cy="0" r="1" gradientUnits="userSpaceOnUse" gradientTransform="translate(21.7379 5.32258) rotate(6.88366) scale(292.359 69.6238)">
<stop stop-color="#76A79B"/>
<stop offset="0.652783" stop-color="#0F5157" stop-opacity="0.8"/>
<stop offset="0.887675" stop-color="#052D30" stop-opacity="0.8"/>
</radialGradient>
<linearGradient id="paint1_linear_1_251" x1="322.608" y1="42.1371" x2="314.464" y2="-40.0027" gradientUnits="userSpaceOnUse">
<stop stop-color="#313131"/>
<stop offset="1" stop-color="white"/>
</linearGradient>
<radialGradient id="paint2_radial_1_251" cx="0" cy="0" r="1" gradientUnits="userSpaceOnUse" gradientTransform="translate(21.7903 5.32261) rotate(6.86688) scale(293.07 69.6263)">
<stop stop-color="#76A79B"/>
<stop offset="0.652783" stop-color="#0F5157" stop-opacity="0.8"/>
<stop offset="0.887675" stop-color="#052D30" stop-opacity="0.8"/>
</radialGradient>
<linearGradient id="paint3_linear_1_251" x1="323.403" y1="42.1371" x2="315.278" y2="-40.0066" gradientUnits="userSpaceOnUse">
<stop stop-color="#313131"/>
<stop offset="1" stop-color="white"/>
</linearGradient>
<linearGradient id="paint4_linear_1_251" x1="243.865" y1="-3.41936" x2="243.174" y2="28.7619" gradientUnits="userSpaceOnUse">
<stop stop-color="#6DE8CA" stop-opacity="0.27"/>
<stop offset="1" stop-color="#BABABA" stop-opacity="0.06"/>
</linearGradient>
</defs>
</svg>
